<svg width="180" height="140" viewBox="35 55 130 100" xmlns="http://www.w3.org/2000/svg">
  <!-- Terminal Window -->
  <rect x="40" y="60" width="120" height="90" rx="8" fill="#161B22" stroke="#30A46C" stroke-width="2.5"/>
  
  <!-- Terminal Header Dots -->
  <circle cx="52" cy="72" r="3" fill="#FF5F56"/>
  <circle cx="64" cy="72" r="3" fill="#FFBD2E"/>
  <circle cx="76" cy="72" r="3" fill="#27C93F"/>
  
  <!-- Command Prompt Symbol -->
  <path d="M 52 95 L 62 105 L 52 115" stroke="#30A46C" stroke-width="3" fill="none" stroke-linecap="round" stroke-linejoin="round"/>
  
  <!-- AI Sparkles ✨ (match reference: 2 stars) -->
  <!-- Large star (top-left) -->
  <g transform="translate(78, 98)">
    <path d="M 0 -12 L 4.2 -4.2 L 12 0 L 4.2 4.2 L 0 12 L -4.2 4.2 L -12 0 L -4.2 -4.2 Z"
      fill="#58A6FF" opacity="0.95"/>
  </g>
  <!-- Small star (bottom-right) -->
  <g transform="translate(92, 112)">
    <path d="M 0 -7 L 2.4 -2.4 L 7 0 L 2.4 2.4 L 0 7 L -2.4 2.4 L -7 0 L -2.4 -2.4 Z"
      fill="#58A6FF" opacity="0.85"/>
  </g>

  <!-- Cursor Blink -->
  <rect x="105" y="102" width="2.5" height="14" fill="#30A46C"/>
  
  <!-- Code Lines -->
  <line x1="52" y1="128" x2="95" y2="128" stroke="#8B949E" stroke-width="2" stroke-linecap="round"/>
  <line x1="52" y1="138" x2="110" y2="138" stroke="#8B949E" stroke-width="2" stroke-linecap="round"/>
</svg>
